<svg width="192" height="192" xmlns="http://www.w3.org/2000/svg" xml:space="preserve" enable-background="new 0 0 192 192" version="1.1">

 <g>
  <title>Layer 1</title>
  <path id="svg_5" d="m96.5,21.5c0,0 -65.5,36 -65.5,36c0,0 0.5,76 0.5,76c0,0 65,39.5 65,39.5c0,0 65.5,-39.5 65.5,-39.5c0,0 -0.5,-74.5 -0.5,-74.5c0,0 -65,-37.5 -65,-37.5z" opacity="NaN" stroke="#000" fill="#fff"/>
  <path id="svg_1" d="m161.271,96.556c-22.368,0.439 -17.709,14.599 -33.473,18.18c-16.014,3.638 -18.542,-39.111 -34.552,-39.111c-16.012,0 -19.559,41.526 -39.608,70.034l-0.572,0.807l42.985,24.813l65.22,-37.651l0,-37.072z" fill="#36A2EB"/>
  <path id="svg_2" d="m161.271,95.267c-7.488,-9.61 -12.567,-20.658 -23.494,-20.658c-19.337,0 -14.249,31.545 -35.62,31.545c-21.373,0 -23.62,-33.931 -47.832,-2.035c-7.715,10.163 -13.925,21.495 -18.803,32.218l60.529,34.943l65.22,-37.651l0,-38.362z" fill="#FFCE56"/>
  <path id="svg_3" d="m30.829,108.334c7.338,-20.321 10.505,-36.779 24.514,-36.779c21.371,0 26.458,60.039 44.779,53.931c18.318,-6.105 16.282,-38.669 44.779,-38.669c5.424,0 10.962,3.323 16.371,8.698l0,38.113l-65.22,37.651l-65.222,-37.651l0,-25.294l-0.001,0z" fill="#FE6184" opacity="0.8"/>
  <path id="svg_4" d="m96,176l-69.292,-39.999l0,-80.001l69.292,-40l69.292,40l0,80l-69.292,40zm-61.151,-44.699l61.151,35.301l61.151,-35.301l0,-70.601l-61.151,-35.301l-61.151,35.301l0,70.601z" fill="#E7E9ED"/>
 </g>
</svg>