<svg version="1.2" xmlns="http://www.w3.org/2000/svg" viewBox="0 0 382 382" width="382" height="382"><style>.a{fill:#66fcf1}</style><path class="a" d="m73.9 79.4l-24.4-5.4c-2.9-0.7-5.3 0-6.4 1.7-1 1.5-0.9 3.6 0.1 5.9l3 6.7c0.6 1.4-0.3 3.1-0.8 3.5-28.5 25.9-44.8 62.7-44.8 101 0 45.4 22.5 87.7 60.2 113.2 1.5 1 3.4 1.6 5.3 1.6 3.1 0 6.1-1.6 7.9-4.2 1-1.6 1.6-3.4 1.6-5.3 0-3.2-1.6-6.1-4.2-7.9-32.4-21.9-51.8-58.3-51.8-97.4 0-30.8 12.6-61.1 34.5-83.1 0.6-0.5 0.9-0.6 1-0.6 0.1 0 0.3 0.2 0.5 0.5l2.7 6.2c1.2 2.6 2.8 4 4.7 4 1.8 0 3.4-1.3 4.6-3.9l11.9-25c1.1-2.4 1.2-5 0.1-7.2-1.1-2.2-3.1-3.7-5.7-4.3z"/><path class="a" d="m381.7 188.5c0-45.4-22.5-87.7-60.1-113.1-1.6-1.1-3.5-1.7-5.4-1.7-3.1 0-6.1 1.6-7.8 4.2-1.1 1.6-1.7 3.4-1.7 5.3 0 3.2 1.6 6.1 4.2 7.9 32.4 21.9 51.8 58.3 51.8 97.4 0 30.9-12.6 61.1-34.5 83.1-0.6 0.6-0.9 0.6-0.9 0.6-0.2 0-0.4-0.2-0.5-0.5l-2.8-6.2c-1.1-2.6-2.8-4-4.6-4-1.9 0-3.5 1.4-4.7 3.9l-11.9 25c-1.1 2.5-1.2 5-0.1 7.2 1.1 2.2 3.1 3.7 5.8 4.3l24.3 5.4q1.2 0.3 2.2 0.3c1.9 0 3.4-0.7 4.2-2 1-1.5 0.9-3.6-0.1-5.9l-2.9-6.7c-0.7-1.3 0.3-3 0.8-3.5 28.4-25.9 44.7-62.7 44.7-101z"/><path class="a" d="m194.8 79.6c-9.8-3.9-12.6-6.3-12.6-10.6 0-3.4 2.6-7.4 9.9-7.4 6.4 0 11.4 2.6 11.4 2.6 0.5 0.3 1.1 0.4 1.7 0.4 1.4 0 2.7-0.8 3.2-2.1l1.7-4.6c0.7-1.6-0.3-3.1-1.5-3.6-3.9-1.7-11.7-3-11.8-3.1-0.1 0-0.5-0.1-0.5-0.6l-0.1-6.5c0-2-1.6-3.6-3.6-3.6h-3.2c-2 0-3.7 1.6-3.7 3.6v6.9c0 0.5-0.6 0.7-0.8 0.8-9.8 2.3-15.9 9.5-15.9 18.5 0 11.3 9.3 16.4 19.4 20.2 8.1 3.2 11.3 6.4 11.3 11.1 0 5.1-4.6 8.7-11.3 8.7-5.7 0-13.4-3.6-13.4-3.7q-0.8-0.3-1.6-0.3c-1.4 0-2.7 0.9-3.2 2.2l-1.7 4.6c-0.6 1.7 0.3 3.1 1.5 3.7 4.7 2.5 13.9 3.9 14.3 4 0.1 0 0.6 0.2 0.6 0.7v6.9c0 2 1.7 3.6 3.7 3.6h3.3c2 0 3.7-1.6 3.7-3.6v-7.2c0-0.7 0.5-0.8 0.6-0.8 10.4-2.3 16.8-10 16.8-19.6 0-9.8-5.4-16.2-18.2-21.2z"/><path fill-rule="evenodd" class="a" d="m190.7 172.5c-47.7 0-86.3-38.6-86.3-86.3 0-47.7 38.6-86.2 86.3-86.2 47.6 0 86.2 38.5 86.2 86.2 0 47.7-38.6 86.3-86.2 86.3zm66.2-86.3c0-36.6-29.6-66.2-66.2-66.2-36.7 0-66.3 29.6-66.3 66.2 0 36.7 29.6 66.3 66.3 66.3 36.6 0 66.2-29.6 66.2-66.3z"/><path fill-rule="evenodd" class="a" d="m190.7 381.3c-47.7 0-86.3-38.5-86.3-86.2 0-47.7 38.6-86.2 86.3-86.2 47.6 0 86.2 38.5 86.2 86.2 0 47.7-38.6 86.2-86.2 86.2zm66.2-86.2c0-36.6-29.6-66.2-66.2-66.2-36.7 0-66.3 29.6-66.3 66.2 0 36.6 29.6 66.2 66.3 66.2 36.6 0 66.2-29.6 66.2-66.2z"/><path class="a" d="m216.2 315c-1.8-2.2-5.1-2.4-7.2-0.5-4.7 4.1-9.7 6.3-15.9 6.3-8.8 0-15.6-4.4-20.2-11.1-0.2-0.3-0.5-0.9 0.5-0.9h11.6c2.9 0 5.1-2.3 5.1-5.1 0-2.8-2.2-5.1-5.1-5.1h-15.6c-0.8 0-0.9-0.6-0.9-1q-0.2-1.2-0.2-2.5c0-1 0-1.5 0.2-2.5 0-0.2 0.1-1 1.2-1h17.7c2.8 0 5.1-2.3 5.1-5.1 0-2.8-2.3-5.1-5.1-5.1h-13.4c-1.7 0-0.9-1.2-0.5-1.7 4.7-6.3 11.2-10.3 19.6-10.3 4.5 0 8 1.2 11.8 3.4 2.5 1.4 5.6 0.6 7-1.8 1.4-2.5 0.6-5.6-1.8-7-5.5-3.2-10.7-4.8-17-4.8-14.3 0-25.6 8.3-31.4 20.3-0.3 0.6-0.6 1.9-1.9 1.9h-6.5c-2.8 0-5.1 2.3-5.1 5.1 0 2.8 2.3 5.1 5.1 5.1h4.3c0.9 0 0.7 0.7 0.6 0.9 0 1-0.1 1.6-0.1 2.6q0 1.4 0.1 2.7c0.1 0.3 0.2 0.8-0.7 0.8h-6.5c-2.9 0-5.1 2.3-5.1 5.1 0 2.8 2.2 5.1 5.1 5.1h9c1.1 0 1.1 0.6 1.2 0.9 5.6 12.6 17.3 21.3 31.9 21.3 8.7 0 16.1-3.1 22.6-8.9 2.2-1.8 2.4-5 0.5-7.1z"/></svg>