<svg fill="#66fcf1" viewBox="0 0 64 64" xmlns="http://www.w3.org/2000/svg">
<path d="m25.438 15.125h-16.875c-1.553 0-2.813-1.26-2.813-2.813s1.26-2.812 2.813-2.812h16.875c1.555 0 2.813 1.26 2.813 2.813h3.749c0-3.624-2.938-6.563-6.563-6.563h-6.563v-3.75h-3.75v3.75h-6.561c-3.625 0-6.563 2.938-6.563 6.563s2.938 6.563 6.563 6.563h16.875c1.555 0 2.813 1.26 2.813 2.813 0 1.555-1.258 2.814-2.813 2.814v-.003h-16.875v.002c-1.553 0-2.813-1.26-2.813-2.814h-3.75c0 3.625 2.938 6.563 6.563 6.563h6.563v3.749h3.75v-3.75h6.563c3.625 0 6.563-2.938 6.563-6.563-.002-3.624-2.939-6.562-6.564-6.562z"/>
<path d="m42.053 22.726-4.864 4.861 15.248.663-.664-15.247-4.861 4.863-13.037-8.178z"/>
<path d="m19.813 36.688.663 15.247 4.641-4.64 13.257 7.954-7.954-13.257 4.64-4.641z"/>
<path d="m53.525 43.25 8.475-8.643-2.557-2.607-7.755 7.912-7.758-7.912-2.555 2.607 8.475 8.643h-.037-3.798v3.75h3.798v3.75h-3.798v3.75h3.798v7.5h3.75v-7.5h3.795v-3.75h-3.795v-3.75h3.795v-3.75h-3.795z"/>
</svg>