<?xml version="1.0" encoding="iso-8859-1"?>
<!-- Uploaded to: SVG Repo, www.svgrepo.com, Generator: SVG Repo Mixer Tools -->
<svg fill="#000000" height="800px" width="800px" version="1.1" id="Layer_1" xmlns="http://www.w3.org/2000/svg" xmlns:xlink="http://www.w3.org/1999/xlink" 
	 viewBox="0 0 502.944 502.944" xml:space="preserve">
<g>
	<g>
		<path d="M491.733,286.523c-8.533-4.267-19.2-2.133-25.6,4.267c-12.8,13.867-27.733,25.6-44.8,35.2
			c-29.867,17.067-61.867,25.6-94.933,25.6c-55.467,0-104.533-25.6-129.067-68.267c-17.067-29.867-21.333-66.133-11.733-102.4
			c11.733-44.8,43.733-84.267,87.467-108.8c16-8.533,34.133-16,53.333-20.267c9.6-2.133,16-10.667,16-20.267
			c0-9.6-5.333-17.067-14.933-20.267c-66.133-19.2-138.667-11.733-198.4,22.4C69.333,66.789,27.733,121.189,8.533,186.256
			C-8.533,251.323,0,318.522,34.133,376.122C80,453.989,164.267,501.989,254.933,501.989c44.8,0,88.533-11.733,126.933-34.133
			c60.8-34.133,103.467-90.667,120.533-157.867C504.533,300.39,500.266,290.79,491.733,286.523z M361.6,432.656
			c-32,18.133-68.267,27.733-105.6,27.733c-75.733,0-147.2-39.467-184.533-104.533c-28.8-48-36.267-104.533-21.333-157.867
			c14.933-54.4,50.133-100.267,99.2-126.933c27.733-16,58.667-25.6,90.667-27.733c-46.933,29.867-81.067,75.733-93.867,128
			c-12.8,46.933-7.467,94.933,16,134.4c33.067,55.467,94.933,88.533,165.333,88.533c36.267,0,71.467-9.6,104.533-25.6
			C413.867,395.323,390.4,416.656,361.6,432.656z"/>
	</g>
</g>
</svg>