<?xml version="1.0" encoding="utf-8"?>
<svg fill="currentColor" height="800px" width="800px" version="1.1" id="Layer_1" viewBox="0 0 502.944 502.944" xmlns="http://www.w3.org/2000/svg">
  <defs/>
  <g>
    <g>
      <path d="M 491.733 286.523 C 483.2 282.256 472.533 284.39 466.133 290.79 C 453.333 304.657 438.4 316.39 421.333 325.99 C 391.466 343.057 359.466 351.59 326.4 351.59 C 270.933 351.59 221.867 325.99 197.333 283.323 C 180.266 253.456 176 217.19 185.6 180.923 C 197.333 136.123 229.333 96.656 273.067 72.123 C 289.067 63.59 307.2 56.123 326.4 51.856 C 336 49.723 342.4 41.189 342.4 31.589 C 342.4 21.989 337.067 14.522 327.467 11.322 C 261.334 -7.878 188.8 -0.411 129.067 33.722 C 69.333 66.789 27.733 121.189 8.533 186.256 C -8.533 251.323 0 318.522 34.133 376.122 C 80 453.989 164.267 501.989 254.933 501.989 C 299.733 501.989 343.466 490.256 381.866 467.856 C 442.666 433.723 485.333 377.189 502.399 309.989 C 504.533 300.39 500.266 290.79 491.733 286.523 Z"/>
    </g>
  </g>
</svg>