<?xml version="1.0" encoding="utf-8"?>
<svg fill="#000000" height="800px" width="800px" version="1.1" id="Layer_1" viewBox="0 0 486.94 486.94" xmlns="http://www.w3.org/2000/svg">
  <defs/>
  <g>
    <g>
      <path d="M 243.47 103.736 C 166.67 103.736 103.737 166.669 103.737 243.469 C 103.737 320.269 165.604 383.202 243.47 383.202 C 320.27 383.202 383.203 320.269 383.203 243.469 C 383.203 166.669 320.27 103.736 243.47 103.736 Z"/>
    </g>
  </g>
  <g>
    <g>
      <path d="M329.87,1.336c-10.667-4.267-23.467,2.133-27.733,12.8l-12.8,37.333c-3.2,11.733,2.133,24.533,12.8,27.733&#10;&#9;&#9;&#9;c10.667,4.267,23.467-2.133,27.733-12.8l12.8-37.333C346.937,18.403,340.537,5.603,329.87,1.336z"/>
    </g>
  </g>
  <g>
    <g>
      <path d="M184.803,407.736c-10.667-4.267-23.467,2.133-27.733,12.8l-12.8,37.333c-4.267,10.667,2.133,23.467,12.8,27.733&#10;&#9;&#9;&#9;s23.467-2.133,27.733-12.8l12.8-37.333C200.803,423.736,195.47,410.937,184.803,407.736z"/>
    </g>
  </g>
  <g>
    <g>
      <path d="M471.737,303.203l-37.333-12.8c-10.667-4.267-23.467,2.133-27.733,12.8c-4.267,10.667,2.133,23.467,12.8,27.733&#10;&#9;&#9;&#9;l37.333,12.8c10.667,4.267,23.467-2.133,27.733-12.8C488.803,319.203,482.403,306.403,471.737,303.203z"/>
    </g>
  </g>
  <g>
    <g>
      <path d="M67.47,157.07l-37.333-12.8c-10.667-4.267-23.467,2.133-27.733,12.8s2.133,23.467,12.8,27.733l37.333,12.8&#10;&#9;&#9;&#9;c10.667,4.267,23.467-2.133,27.733-12.8S78.137,161.336,67.47,157.07z"/>
    </g>
  </g>
  <g>
    <g>
      <path d="M474.936,133.603c-4.267-10.667-18.133-14.933-28.8-10.667l-35.2,17.067c-10.667,5.333-14.933,18.133-10.667,28.8&#10;&#9;&#9;&#9;c5.334,10.667,18.133,16,28.8,10.667l35.2-17.067C474.936,157.07,479.203,144.27,474.936,133.603z"/>
    </g>
  </g>
  <g>
    <g>
      <path d="M86.67,318.137c-5.334-10.667-18.133-16-28.8-10.667l-35.2,17.067c-10.667,5.333-14.933,18.133-10.667,28.8&#10;&#9;&#9;&#9;c4.267,10.667,18.133,14.933,28.8,10.667l35.2-17.067C86.67,341.603,90.937,328.803,86.67,318.137z"/>
    </g>
  </g>
  <g>
    <g>
      <path d="M362.937,446.137l-17.067-35.2c-5.333-10.667-18.133-14.933-28.8-10.667c-10.667,5.333-14.933,18.133-10.667,28.8&#10;&#9;&#9;&#9;l17.067,35.2c5.333,10.667,18.133,14.933,28.8,10.667S367.203,456.803,362.937,446.137z"/>
    </g>
  </g>
  <g>
    <g>
      <path d="M180.537,57.87l-17.067-35.2c-5.333-10.667-18.133-14.933-28.8-10.667c-10.667,5.333-14.933,18.133-10.667,28.8&#10;&#9;&#9;&#9;l17.067,35.2c5.333,10.667,18.133,14.933,28.8,10.667C180.537,81.336,184.803,68.536,180.537,57.87z"/>
    </g>
  </g>
</svg>